<svg width="197" height="56" xmlns="http://www.w3.org/2000/svg" fill="none">
 <defs>
  <clipPath id="clip0_3_574">
   <rect id="svg_1" fill="white" height="55.8607" width="348.1"/>
  </clipPath>
 </defs>
 <g>
  <title>Layer 1</title>
  <g id="svg_2" clip-path="url(#clip0_3_574)">
   <path id="svg_3" fill="#23FD7D" d="m116.277,54.5468l-19.5647,-30.7482l18.5427,-22.48448c0.321,-0.37961 0.029,-0.93442 -0.438,-0.93442l-8.994,0c-0.175,0 -0.321,0.0876 -0.438,0.2044l-32.8215,40.1216c-0.3505,0.4088 -1.0221,0.1752 -1.0221,-0.3504l0.0876,-39.39159c0,-0.32121 -0.2628,-0.58401 -0.584,-0.58401l-8.5265,0c-0.3212,0 -0.5841,0.2628 -0.5841,0.58401l0,53.90429c0,0.3212 0.2629,0.584 0.5841,0.584l7.8257,0c0.1752,0 0.3212,-0.0876 0.438,-0.2044l19.7688,-23.9737l15.038,23.9153c0.117,0.1752 0.292,0.2628 0.497,0.2628l9.723,0c0.439,-0.0292 0.701,-0.5256 0.468,-0.9052z"/>
   <path id="svg_4" fill="#23FD7D" d="m195.965,0.73007l-6.424,-0.73001c-0.584,-0.05841 -1.11,0.3504 -1.197,0.93441l-4.731,41.99043c-0.087,0.7884 -0.963,1.1972 -1.635,0.7884l-19.448,-12.4978c-0.321,-0.2044 -0.496,-0.5256 -0.496,-0.9053l0,-28.87932c0,-0.58401 -0.467,-1.08042 -1.081,-1.08042l-6.453,0c-0.584,0 -1.08,0.46721 -1.08,1.08042l0,28.87932c0,0.3505 -0.175,0.7009 -0.497,0.9053l-19.447,12.4978c-0.672,0.438 -1.548,0 -1.635,-0.7884l-4.731,-41.96123c-0.058,-0.58401 -0.584,-1.02202 -1.197,-0.93441l-6.424,0.73001c-0.584,0.0584 -1.022,0.58401 -0.935,1.19722l5.607,49.55341c0.409,3.6208 4.467,5.5481 7.534,3.5916l26.017,-16.7027l26.018,16.7027c3.066,1.9565 7.125,0.0292 7.534,-3.5916l5.635,-49.58261c0.088,-0.58401 -0.35,-1.13882 -0.934,-1.19722z"/>
   <path id="svg_5" fill="#23FD7D" d="m26.8061,9.54868l-24.67446,0c-1.19722,0 -2.13164,-0.96362 -2.13164,-2.13164l0,-4.9057c0,-1.19722 0.96362,-2.13164 2.13164,-2.13164l24.93726,0l0.146,0c4.6721,0.292 11.5635,1.92724 17.4328,6.10292c6.0737,4.32168 10.9502,11.32978 10.9502,21.69598c0,10.3954 -4.9057,17.3452 -11.0086,21.5501c-5.8985,4.0588 -12.8191,5.5189 -17.4912,5.6941l-0.0876,0l-24.87886,0c-1.19722,0 -2.13164,-0.9636 -2.13164,-2.1317l0,-4.9057c0,-1.1972 0.96362,-2.1316 2.13164,-2.1316l24.73286,0c3.3581,-0.146 8.439,-1.2556 12.5271,-4.0881c3.9128,-2.6864 7.0373,-6.9497 7.0373,-13.9871c0,-7.0373 -3.1245,-11.4174 -7.0957,-14.2206c-4.0881,-2.9201 -9.169,-4.17572 -12.5271,-4.40932z" clip-rule="evenodd" fill-rule="evenodd"/>
   <path id="svg_6" fill="#23FD7D" d="m348.1,31.6242l-0.964,0l0.03,-6.2197l-2.95,6.2197l-0.992,0l-2.95,-6.2197l0.059,6.2197l-0.964,0l0,-7.2417l1.402,0l2.978,6.1321l2.949,-6.1321l1.402,0l0,7.2417z"/>
   <path id="svg_7" fill="#23FD7D" d="m321.411,31.6242l-6.95,0l0,-7.2417l6.687,0l0,0.876l-5.665,0l0,2.1609l5.519,0l0,0.876l-5.519,0l0,2.4528l5.928,0l0,0.876z"/>
   <path id="svg_8" fill="#23FD7D" d="m296.619,25.2293l-2.949,0l0,6.3949l-1.051,0l0,-6.3949l-2.949,0l0,-0.8468l6.949,0l0,0.8468z"/>
   <path id="svg_9" fill="#23FD7D" d="m272.266,29.4342c0,0.4672 -0.117,0.8761 -0.38,1.2265c-0.438,0.6132 -1.138,0.9636 -2.131,1.0804c-0.38,0.0584 -0.73,0.0584 -1.051,0.0584c-0.672,0 -1.314,-0.0584 -1.869,-0.2044c-0.292,-0.0876 -0.555,-0.1752 -0.789,-0.2628c-0.263,-0.1168 -0.525,-0.2628 -0.759,-0.438c-0.234,-0.2044 -0.467,-0.438 -0.672,-0.73l0.964,-0.3797c0.058,0.0876 0.117,0.146 0.146,0.1752c0.234,0.2337 0.584,0.4673 0.993,0.6133c0.555,0.2336 1.256,0.3504 2.044,0.3504c0.876,0 1.548,-0.1752 1.986,-0.4964c0.321,-0.2628 0.496,-0.5841 0.496,-0.9637c0,-0.4088 -0.204,-0.73 -0.613,-0.9052c-0.117,-0.0584 -0.234,-0.0876 -0.38,-0.1168c-0.146,-0.0292 -0.321,-0.0584 -0.555,-0.0876c-0.204,-0.0292 -0.379,-0.0584 -0.496,-0.0584c-0.117,0 -0.292,-0.0292 -0.555,-0.0584c-0.233,-0.0292 -0.379,-0.0292 -0.379,-0.0292c-0.789,-0.0584 -1.373,-0.146 -1.694,-0.2044c-0.35,-0.0876 -0.643,-0.2336 -0.905,-0.4672c-0.351,-0.3212 -0.526,-0.73 -0.526,-1.2264c0,-0.73 0.35,-1.2848 1.022,-1.6353c0.584,-0.3212 1.373,-0.4672 2.395,-0.4672c1.168,0 2.102,0.2336 2.832,0.7009c0.146,0.0876 0.263,0.1752 0.321,0.2336c0.059,0.0292 0.205,0.2044 0.467,0.5256l-0.934,0.3796c-0.146,-0.146 -0.292,-0.292 -0.438,-0.3796c-0.584,-0.4088 -1.314,-0.6132 -2.219,-0.6132c-0.643,0 -1.168,0.0876 -1.577,0.2336c-0.292,0.1168 -0.496,0.2628 -0.613,0.438c-0.117,0.1752 -0.175,0.3504 -0.175,0.5548c0,0.1752 0.029,0.3212 0.116,0.4672c0.088,0.1168 0.205,0.2336 0.351,0.3212c0.146,0.0876 0.292,0.1168 0.379,0.146c0.088,0 0.263,0.0292 0.468,0.0584c0.292,0.0292 0.7,0.0876 1.226,0.1168c0.555,0.0584 0.934,0.0876 1.168,0.1168c0.526,0.0584 0.964,0.1752 1.256,0.292c0.292,0.146 0.554,0.3212 0.73,0.5548c0.204,0.2628 0.35,0.6424 0.35,1.0804z"/>
   <path id="svg_10" fill="#23FD7D" d="m248.205,24.3825l-3.679,4.4385l0,2.8032l-1.022,0l0,-2.8324l-3.621,-4.4093l1.343,0l2.803,3.5333l2.862,-3.5333l1.314,0z"/>
   <path id="svg_11" fill="#23FD7D" d="m223.18,29.4342c0,0.4672 -0.117,0.8761 -0.38,1.2265c-0.438,0.6132 -1.138,0.9636 -2.131,1.0804c-0.38,0.0584 -0.73,0.0584 -1.052,0.0584c-0.671,0 -1.314,-0.0584 -1.868,-0.2044c-0.292,-0.0876 -0.555,-0.1752 -0.789,-0.2628c-0.263,-0.1168 -0.525,-0.2628 -0.759,-0.438c-0.234,-0.2044 -0.467,-0.438 -0.672,-0.73l0.964,-0.3797c0.058,0.0876 0.117,0.146 0.146,0.1752c0.234,0.2337 0.584,0.4673 0.993,0.6133c0.555,0.2336 1.255,0.3504 2.044,0.3504c0.876,0 1.548,-0.1752 1.986,-0.4964c0.321,-0.2628 0.496,-0.5841 0.496,-0.9637c0,-0.4088 -0.204,-0.73 -0.613,-0.9052c-0.117,-0.0584 -0.234,-0.0876 -0.38,-0.1168c-0.146,-0.0292 -0.321,-0.0584 -0.555,-0.0876c-0.204,-0.0292 -0.379,-0.0584 -0.496,-0.0584c-0.117,0 -0.292,-0.0292 -0.555,-0.0584c-0.233,-0.0292 -0.38,-0.0292 -0.38,-0.0292c-0.788,-0.0584 -1.372,-0.146 -1.693,-0.2044c-0.351,-0.0876 -0.643,-0.2336 -0.905,-0.4672c-0.351,-0.3212 -0.526,-0.73 -0.526,-1.2264c0,-0.73 0.35,-1.2848 1.022,-1.6353c0.584,-0.3212 1.372,-0.4672 2.394,-0.4672c1.169,0 2.103,0.2336 2.833,0.7009c0.146,0.0876 0.263,0.1752 0.321,0.2336c0.059,0.0292 0.205,0.2044 0.467,0.5256l-0.934,0.3796c-0.146,-0.146 -0.292,-0.292 -0.438,-0.3796c-0.584,-0.4088 -1.314,-0.6132 -2.219,-0.6132c-0.643,0 -1.168,0.0876 -1.577,0.2336c-0.292,0.1168 -0.497,0.2628 -0.613,0.438c-0.117,0.1752 -0.176,0.3504 -0.176,0.5548c0,0.1752 0.03,0.3212 0.117,0.4672c0.088,0.1168 0.205,0.2336 0.351,0.3212c0.146,0.0876 0.292,0.1168 0.379,0.146c0.088,0 0.263,0.0292 0.467,0.0584c0.292,0.0292 0.701,0.0876 1.227,0.1168c0.555,0.0584 0.934,0.0876 1.168,0.1168c0.526,0.0584 0.964,0.1752 1.256,0.292c0.292,0.146 0.554,0.3212 0.73,0.5548c0.233,0.2628 0.35,0.6424 0.35,1.0804z"/>
  </g>
 </g>
</svg>