<svg width="41" height="39" viewBox="0 0 41 39" fill="none" xmlns="http://www.w3.org/2000/svg">
<g clip-path="url(#clip0_164_561)">
<path d="M13.4292 18.4998C11.8447 18.1099 9.92376 17.6259 8.99484 17.3541C8.41102 17.1836 6.93785 16.6602 6.33053 16.4432C6.16354 16.3836 6.06212 16.3466 6.06212 16.3466C1.9333 14.9088 0 13.248 0 13.248V20.2381C0 20.2381 1.71807 22.6046 13.4255 25.0892C13.4292 25.0892 13.4317 25.0904 13.4354 25.0916C13.4354 25.0916 15.0817 25.423 17.4751 26.2242C18.5376 26.5795 19.7016 27.0349 19.7016 27.0349V20.2547C19.0547 19.9018 15.9203 19.1054 15.9203 19.1054C15.9203 19.1054 14.8009 18.8372 13.4279 18.4986L13.4292 18.4998Z" fill="#2772B6"/>
<path d="M13.4478 35.0455C16.7404 37.852 19.714 38.559 19.714 38.559V37.077C15.9624 35.8359 13.4478 33.4026 13.4478 33.4026V35.0443V35.0455Z" fill="#195893"/>
<path d="M13.4353 25.0915V33.1033C16.728 35.9098 19.7015 36.6167 19.7015 36.6167V27.0337C19.7015 27.0337 18.5376 26.5794 17.4751 26.2229C15.0816 25.4218 13.4353 25.0903 13.4353 25.0903V25.0915Z" fill="url(#paint0_linear_164_561)"/>
<path d="M13.684 7.08177C13.5269 7.21053 13.4354 7.40009 13.4354 7.5992V18.1075L13.4292 18.5009C14.8022 18.8395 15.9216 19.1077 15.9216 19.1077C15.9216 19.1077 19.0547 19.9029 19.7028 20.257V3.76978C19.7028 3.76978 16.8542 4.48749 13.6852 7.08177H13.684Z" fill="url(#paint1_linear_164_561)"/>
<path d="M6.26621 16.4443V3.39545C6.26621 3.19277 6.2291 3.04851 6.0683 2.91856C2.8783 0.329054 0 0 0 0V13.2587C0 13.2587 1.87021 14.9087 5.9978 16.3478C5.9978 16.3478 6.09922 16.3847 6.26621 16.4443V16.4443Z" fill="url(#paint2_linear_164_561)"/>
<path d="M41.0001 9.07408C41.0001 9.07408 38.1391 9.83829 34.9479 12.454C34.7859 12.5864 34.6919 12.7795 34.6919 12.9834V29.7627C34.6919 29.9618 34.6832 30.155 34.6708 30.3469C34.6684 30.3863 34.6671 30.4256 34.6634 30.4649C34.2119 36.1864 28.3453 38.5232 28.2513 38.5601H28.2488L28.2537 38.5625C28.2537 38.5625 28.2562 38.5625 28.2574 38.5625C28.2809 38.5697 28.3044 38.5756 28.3267 38.5816C28.3725 38.5947 28.4195 38.6078 28.4652 38.6197C28.5568 38.6448 28.6471 38.6686 28.7398 38.6913C28.7918 38.7044 28.8437 38.7175 28.8969 38.7294C29.0107 38.7557 29.1258 38.7795 29.2408 38.8022C29.2692 38.8081 29.2977 38.8141 29.3274 38.82C29.4709 38.8463 29.6156 38.8701 29.7615 38.8916C29.7999 38.8975 29.8395 38.9011 29.8778 38.9059C29.9866 38.9202 30.0967 38.9333 30.2081 38.944C30.2575 38.9488 30.3082 38.9536 30.3577 38.9571C30.4641 38.9667 30.5705 38.9738 30.6768 38.9798C30.7226 38.9822 30.7696 38.9858 30.8154 38.987C30.9415 38.9917 31.0702 38.9953 31.1976 38.9953C31.2223 38.9953 31.2471 38.9965 31.2706 38.9965C31.4202 38.9965 31.5687 38.9917 31.7158 38.9858C31.7591 38.9834 31.8037 38.981 31.847 38.9786C31.962 38.9726 32.077 38.9643 32.1921 38.9548C32.2279 38.9512 32.2638 38.9488 32.2997 38.9452C32.4394 38.9321 32.578 38.9154 32.7153 38.8963C32.7672 38.8892 32.8192 38.8808 32.8711 38.8725C32.9589 38.8594 33.1024 38.8355 33.189 38.8189C33.2274 38.8117 33.2657 38.8045 33.3028 38.7974C33.403 38.7783 33.502 38.7569 33.5997 38.7342C33.6628 38.7199 33.7258 38.7056 33.7877 38.6901C33.8718 38.6698 33.9559 38.6496 34.0388 38.6269C34.0511 38.6233 34.0635 38.6186 34.0771 38.615C34.2231 38.5744 34.3666 38.5315 34.51 38.485C34.5298 38.4791 34.5509 38.4731 34.5706 38.466C34.9034 38.3563 35.2274 38.2299 35.5416 38.0892C35.5713 38.0761 35.601 38.0606 35.6319 38.0475C35.7544 37.9914 35.8768 37.933 35.9956 37.871C36.0376 37.8496 36.0784 37.8269 36.1205 37.8055C36.2281 37.7494 36.3333 37.691 36.4384 37.6302C36.4829 37.6052 36.5262 37.5789 36.5707 37.5527C36.6722 37.4919 36.7724 37.4299 36.8713 37.3655C36.9134 37.3381 36.9554 37.3119 36.9962 37.2845C37.0989 37.2165 37.1991 37.145 37.298 37.0734C37.3327 37.0484 37.3673 37.0246 37.4007 36.9995C37.5195 36.9113 37.6357 36.8195 37.7495 36.7265C37.7619 36.717 37.7743 36.7074 37.7854 36.6979C37.9153 36.5906 38.0427 36.4785 38.1664 36.3653C38.1701 36.3617 38.175 36.3569 38.1787 36.3533C38.2938 36.2472 38.4051 36.1387 38.5127 36.0279C38.5411 35.9981 38.5696 35.9671 38.598 35.9372C38.6809 35.8502 38.7625 35.762 38.8417 35.6726C38.8751 35.6344 38.9085 35.5951 38.9407 35.5569C38.958 35.5367 38.9753 35.5152 38.9926 35.4937C39.0347 35.4425 39.0767 35.3924 39.1188 35.3399C39.1299 35.3268 39.141 35.3125 39.1522 35.2994C39.167 35.2803 39.1806 35.2624 39.1955 35.2434C39.214 35.2195 39.2326 35.1969 39.2499 35.173C39.3167 35.086 39.381 34.9966 39.4453 34.906C39.475 34.8642 39.5047 34.8225 39.5331 34.7796C39.5987 34.6818 39.663 34.5829 39.7249 34.4839C39.7471 34.4482 39.7706 34.4124 39.7929 34.3766C39.8708 34.2467 39.9463 34.1155 40.0168 33.982C40.0205 33.9748 40.0242 33.9689 40.0279 33.9617C40.1046 33.8163 40.1776 33.6696 40.2456 33.5194C40.2468 33.5158 40.2493 33.5135 40.2506 33.5099C40.2666 33.4741 40.2802 33.4372 40.2963 33.4014C40.3371 33.3072 40.3792 33.213 40.4175 33.1176C40.4336 33.0783 40.446 33.0378 40.4608 32.9984C40.4979 32.9018 40.5338 32.8041 40.5672 32.7063C40.5808 32.6646 40.5932 32.6217 40.6068 32.5799C40.6377 32.4822 40.6686 32.3856 40.6971 32.2867C40.7095 32.2402 40.7206 32.1925 40.733 32.146C40.7577 32.0506 40.7824 31.9552 40.8047 31.8598C40.8171 31.805 40.8257 31.7502 40.8369 31.6953C40.8554 31.6047 40.874 31.5153 40.8888 31.4247C40.8999 31.3579 40.9074 31.2912 40.916 31.2244C40.9272 31.1433 40.9408 31.0634 40.9494 30.9824C40.9593 30.8941 40.9643 30.8059 40.9717 30.7165C40.9766 30.6557 40.9828 30.5949 40.9865 30.5329C40.9939 30.3958 40.9977 30.2575 40.9977 30.1192C40.9977 30.1049 40.9977 30.0918 40.9977 30.0775C40.9977 30.0214 40.9977 29.9666 40.9952 29.9106H40.9977V9.06812L41.0001 9.07408Z" fill="#62ADF2"/>
<path d="M27.4991 10.4307C24.2065 7.62422 21.2329 6.91724 21.2329 6.91724V8.39917C24.9845 9.64027 27.4991 12.0736 27.4991 12.0736V10.4319V10.4307Z" fill="#4994D8"/>
<path d="M31.4363 32.835L30.453 32.8469C28.8338 32.866 27.5116 31.607 27.5116 30.0463V12.6208V12.3728C24.2189 9.56633 21.2454 8.85815 21.2454 8.85815V9.05368V29.8782H21.2478C21.2478 29.9319 21.2454 29.9879 21.2454 30.044C21.2454 31.8991 21.8688 33.6206 22.9325 35.0429C23.0018 35.1359 23.0735 35.2277 23.1465 35.3184C23.149 35.3219 23.1514 35.3243 23.1539 35.3279C23.2257 35.4161 23.2974 35.502 23.3729 35.5878C23.3778 35.5938 23.3828 35.5985 23.3877 35.6045C23.4607 35.6868 23.5349 35.7678 23.6103 35.8477C23.6178 35.8549 23.6239 35.862 23.6314 35.8692C23.7056 35.9467 23.781 36.0241 23.8577 36.0993C23.8689 36.11 23.88 36.1195 23.8911 36.1303C23.9653 36.2018 24.0396 36.2721 24.1162 36.3425C24.1298 36.3556 24.1447 36.3675 24.1583 36.3794C24.2325 36.4462 24.308 36.5118 24.3847 36.5761C24.402 36.5905 24.4205 36.6048 24.4378 36.6191C24.5121 36.6799 24.5863 36.7407 24.6617 36.8003C24.684 36.817 24.7062 36.8337 24.7285 36.8504C24.8015 36.9064 24.8745 36.9612 24.9487 37.0149C24.9759 37.034 25.0031 37.0518 25.0303 37.0709C25.1021 37.121 25.1726 37.1711 25.2455 37.2199C25.2765 37.2402 25.3099 37.2605 25.3408 37.2808C25.4101 37.3261 25.4793 37.3714 25.5498 37.4143C25.5869 37.4369 25.624 37.4572 25.6611 37.4799C25.7279 37.5192 25.7947 37.5597 25.864 37.5979C25.9048 37.6205 25.9481 37.6432 25.9889 37.6658C26.0545 37.7016 26.1188 37.7374 26.1856 37.7719C26.2326 37.7958 26.2821 37.8196 26.3291 37.8423C26.3909 37.8733 26.4528 37.9043 26.5146 37.9341C26.569 37.9591 26.6247 37.983 26.6791 38.008C26.7373 38.0342 26.7942 38.0605 26.8523 38.0855C26.9141 38.1117 26.9772 38.1368 27.0403 38.1618C27.0923 38.1833 27.1442 38.2047 27.1962 38.225C27.2728 38.2536 27.3508 38.281 27.4275 38.3084C27.467 38.3228 27.5066 38.3383 27.5474 38.3514C27.6662 38.3919 27.7849 38.4301 27.9061 38.4658C28.088 38.5171 28.2302 38.5588 28.2512 38.5648L28.2463 38.5624C28.2463 38.5624 28.2475 38.5624 28.2488 38.5624C28.3428 38.5254 34.2107 36.1887 34.6609 30.4672C34.6634 30.4279 34.6659 30.3885 34.6684 30.3492C34.4655 31.694 32.8835 32.8206 31.4338 32.8373L31.4363 32.835Z" fill="url(#paint3_linear_164_561)"/>
</g>
<defs>
<linearGradient id="paint0_linear_164_561" x1="16.5684" y1="19.9519" x2="16.5684" y2="36.6179" gradientUnits="userSpaceOnUse">
<stop stop-color="#0A003F"/>
<stop offset="0.03" stop-color="#0B0544"/>
<stop offset="0.19" stop-color="#102461"/>
<stop offset="0.37" stop-color="#143B78"/>
<stop offset="0.55" stop-color="#174C88"/>
<stop offset="0.75" stop-color="#195691"/>
<stop offset="1" stop-color="#1A5A95"/>
</linearGradient>
<linearGradient id="paint1_linear_164_561" x1="16.566" y1="21.3086" x2="16.566" y2="-3.35572e-05" gradientUnits="userSpaceOnUse">
<stop stop-color="#0A0443"/>
<stop offset="0.08" stop-color="#0F1E5C"/>
<stop offset="0.16" stop-color="#133471"/>
<stop offset="0.26" stop-color="#164581"/>
<stop offset="0.38" stop-color="#18518C"/>
<stop offset="0.54" stop-color="#195893"/>
<stop offset="1" stop-color="#1A5A95"/>
</linearGradient>
<linearGradient id="paint2_linear_164_561" x1="3.1331" y1="21.3086" x2="3.1331" y2="0" gradientUnits="userSpaceOnUse">
<stop stop-color="#0A0443"/>
<stop offset="0.08" stop-color="#0F1E5C"/>
<stop offset="0.16" stop-color="#133471"/>
<stop offset="0.26" stop-color="#164581"/>
<stop offset="0.38" stop-color="#18518C"/>
<stop offset="0.54" stop-color="#195893"/>
<stop offset="1" stop-color="#1A5A95"/>
</linearGradient>
<linearGradient id="paint3_linear_164_561" x1="21.2454" y1="23.7109" x2="34.6708" y2="23.7109" gradientUnits="userSpaceOnUse">
<stop stop-color="#4994D8"/>
<stop offset="0.51" stop-color="#4792D6"/>
<stop offset="0.71" stop-color="#438CCF"/>
<stop offset="0.86" stop-color="#3B82C3"/>
<stop offset="0.98" stop-color="#3074B1"/>
<stop offset="1" stop-color="#2E71AE"/>
</linearGradient>
<clipPath id="clip0_164_561">
<rect width="41" height="39" fill="white"/>
</clipPath>
</defs>
</svg>
